G04 Layer_Physical_Order=1*
G04 Layer_Color=255*
%FSLAX26Y26*%
%MOIN*%
%TF.FileFunction,Copper,L1,Top,Signal*%
%TF.Part,Single*%
G01*
G75*
%TA.AperFunction,SMDPad,CuDef*%
%ADD10R,0.035433X0.037402*%
%ADD11O,0.086614X0.023622*%
%ADD12R,0.037402X0.035433*%
%ADD13R,0.070866X0.029528*%
%TA.AperFunction,Conductor*%
%ADD14C,0.010000*%
%ADD15C,0.008000*%
%TA.AperFunction,ComponentPad*%
%ADD16R,0.059055X0.059055*%
%ADD17C,0.059055*%
G36*
X938000Y0D02*
X0D01*
Y530000D01*
X938000D01*
Y0D01*
D02*
G37*
%LPC*%
G36*
X641063Y153424D02*
X626299D01*
X622397Y152648D01*
X619090Y150438D01*
X616879Y147130D01*
X616103Y143228D01*
Y129449D01*
X641063D01*
Y153424D01*
D02*
G37*
G36*
X663701D02*
X648937D01*
Y129449D01*
X673897D01*
Y143228D01*
X673121Y147130D01*
X670910Y150438D01*
X667603Y152648D01*
X663701Y153424D01*
D02*
G37*
G36*
X550984Y137238D02*
X523425D01*
Y118937D01*
X572439D01*
X571530Y123510D01*
X566709Y130725D01*
X559495Y135546D01*
X550984Y137238D01*
D02*
G37*
G36*
Y233064D02*
X487992D01*
X481079Y231689D01*
X475219Y227773D01*
X471303Y221913D01*
X469928Y215000D01*
X471303Y208087D01*
X475219Y202227D01*
X481079Y198311D01*
X487992Y196936D01*
X550984D01*
X557897Y198311D01*
X563757Y202227D01*
X568680Y200595D01*
X602137Y167138D01*
X602138Y167137D01*
X605745Y164727D01*
X610000Y163881D01*
X830409D01*
X831479Y155750D01*
X835049Y147131D01*
X840729Y139729D01*
X848131Y134049D01*
X856750Y130479D01*
X866000Y129261D01*
X875250Y130479D01*
X883869Y134049D01*
X891271Y139729D01*
X896951Y147131D01*
X900521Y155750D01*
X901739Y165000D01*
X900521Y174250D01*
X896951Y182869D01*
X891271Y190271D01*
X883869Y195951D01*
X875250Y199521D01*
X866000Y200739D01*
X856750Y199521D01*
X848131Y195951D01*
X840729Y190271D01*
X837543Y186119D01*
X614606D01*
X577862Y222863D01*
X574255Y225273D01*
X570000Y226119D01*
X570000Y226119D01*
X564862D01*
X563757Y227773D01*
X557897Y231689D01*
X550984Y233064D01*
D02*
G37*
G36*
X65000Y300739D02*
X55750Y299521D01*
X47131Y295951D01*
X39729Y290271D01*
X34049Y282869D01*
X30479Y274250D01*
X29261Y265000D01*
X30479Y255750D01*
X34049Y247131D01*
X39729Y239729D01*
X47131Y234049D01*
X55750Y230479D01*
X65000Y229261D01*
X74250Y230479D01*
X81000Y233275D01*
X157137Y157138D01*
X157137Y157137D01*
X160745Y154727D01*
X165000Y153881D01*
X165000Y153881D01*
X285138D01*
X286243Y152227D01*
X292103Y148311D01*
X299016Y146936D01*
X362008D01*
X368921Y148311D01*
X374781Y152227D01*
X378697Y158087D01*
X380072Y165000D01*
X378697Y171913D01*
X374781Y177773D01*
X368921Y181689D01*
X362008Y183064D01*
X299016D01*
X292103Y181689D01*
X286243Y177773D01*
X285138Y176119D01*
X169606D01*
X96725Y249000D01*
X99521Y255750D01*
X100739Y265000D01*
X99521Y274250D01*
X95951Y282869D01*
X90271Y290271D01*
X82869Y295951D01*
X74250Y299521D01*
X65000Y300739D01*
D02*
G37*
G36*
X515551Y187238D02*
X487992D01*
X479482Y185546D01*
X472267Y180725D01*
X467447Y173510D01*
X466537Y168937D01*
X515551D01*
Y187238D01*
D02*
G37*
G36*
Y161063D02*
X466537D01*
X467447Y156490D01*
X472267Y149275D01*
X479482Y144454D01*
X487992Y142762D01*
X515551D01*
Y161063D01*
D02*
G37*
G36*
X572439D02*
X523425D01*
Y142762D01*
X550984D01*
X559495Y144454D01*
X566709Y149275D01*
X571530Y156490D01*
X572439Y161063D01*
D02*
G37*
G36*
X515551Y111063D02*
X466537D01*
X467447Y106490D01*
X472267Y99275D01*
X479482Y94454D01*
X487992Y92762D01*
X515551D01*
Y111063D01*
D02*
G37*
G36*
X572439D02*
X523425D01*
Y92762D01*
X550984D01*
X559495Y94454D01*
X566709Y99275D01*
X571530Y106490D01*
X572439Y111063D01*
D02*
G37*
G36*
X65000Y100739D02*
X55750Y99521D01*
X47131Y95951D01*
X39729Y90271D01*
X34049Y82869D01*
X30479Y74250D01*
X29261Y65000D01*
X30479Y55750D01*
X34049Y47131D01*
X39729Y39729D01*
X47131Y34049D01*
X55750Y30479D01*
X65000Y29261D01*
X74250Y30479D01*
X82869Y34049D01*
X90271Y39729D01*
X95951Y47131D01*
X98747Y53881D01*
X285138D01*
X286243Y52227D01*
X292103Y48311D01*
X299016Y46936D01*
X362008D01*
X368921Y48311D01*
X374781Y52227D01*
X378697Y58087D01*
X380072Y65000D01*
X378697Y71913D01*
X374781Y77773D01*
X368921Y81689D01*
X362008Y83064D01*
X299016D01*
X292103Y81689D01*
X286243Y77773D01*
X285138Y76119D01*
X98747D01*
X95951Y82869D01*
X90271Y90271D01*
X82869Y95951D01*
X74250Y99521D01*
X65000Y100739D01*
D02*
G37*
G36*
X866000D02*
X856750Y99521D01*
X848131Y95951D01*
X840729Y90271D01*
X835049Y82869D01*
X832041Y75607D01*
X670093D01*
Y82205D01*
X668221Y86725D01*
X663701Y88597D01*
X626299D01*
X621779Y86725D01*
X619907Y82205D01*
Y76119D01*
X564862D01*
X563757Y77773D01*
X557897Y81689D01*
X550984Y83064D01*
X487992D01*
X481079Y81689D01*
X475219Y77773D01*
X471303Y71913D01*
X469928Y65000D01*
X471303Y58087D01*
X475219Y52227D01*
X481079Y48311D01*
X487992Y46936D01*
X550984D01*
X557897Y48311D01*
X563757Y52227D01*
X564862Y53881D01*
X619907D01*
Y46772D01*
X621779Y42252D01*
X626299Y40380D01*
X663701D01*
X668221Y42252D01*
X670093Y46772D01*
Y53369D01*
X832465D01*
X835049Y47131D01*
X840729Y39729D01*
X848131Y34049D01*
X856750Y30479D01*
X866000Y29261D01*
X875250Y30479D01*
X883869Y34049D01*
X891271Y39729D01*
X896951Y47131D01*
X900521Y55750D01*
X901739Y65000D01*
X900521Y74250D01*
X896951Y82869D01*
X891271Y90271D01*
X883869Y95951D01*
X875250Y99521D01*
X866000Y100739D01*
D02*
G37*
G36*
X673897Y121575D02*
X648937D01*
Y97599D01*
X663701D01*
X667603Y98376D01*
X670910Y100586D01*
X673121Y103894D01*
X673897Y107795D01*
Y121575D01*
D02*
G37*
G36*
X515551Y137238D02*
X487992D01*
X479482Y135546D01*
X472267Y130725D01*
X467447Y123510D01*
X466537Y118937D01*
X515551D01*
Y137238D01*
D02*
G37*
G36*
X65000Y200739D02*
X55750Y199521D01*
X47131Y195951D01*
X39729Y190271D01*
X34049Y182869D01*
X30479Y174250D01*
X29261Y165000D01*
X30479Y155750D01*
X34049Y147131D01*
X39729Y139729D01*
X47131Y134049D01*
X55750Y130479D01*
X65000Y129261D01*
X74250Y130479D01*
X81000Y133275D01*
X107137Y107138D01*
X107138Y107138D01*
X110745Y104727D01*
X115000Y103881D01*
X115001Y103881D01*
X285138D01*
X286243Y102227D01*
X292103Y98311D01*
X299016Y96936D01*
X362008D01*
X368921Y98311D01*
X374781Y102227D01*
X378697Y108087D01*
X380072Y115000D01*
X378697Y121913D01*
X374781Y127773D01*
X368921Y131689D01*
X362008Y133064D01*
X299016D01*
X292103Y131689D01*
X286243Y127773D01*
X285138Y126119D01*
X119606D01*
X96725Y149000D01*
X99521Y155750D01*
X100739Y165000D01*
X99521Y174250D01*
X95951Y182869D01*
X90271Y190271D01*
X82869Y195951D01*
X74250Y199521D01*
X65000Y200739D01*
D02*
G37*
G36*
X641063Y121575D02*
X616103D01*
Y107795D01*
X616879Y103894D01*
X619090Y100586D01*
X622397Y98376D01*
X626299Y97599D01*
X641063D01*
Y121575D01*
D02*
G37*
G36*
X513936Y476063D02*
X489961D01*
Y451103D01*
X503740D01*
X507642Y451879D01*
X510950Y454090D01*
X513160Y457397D01*
X513936Y461299D01*
Y476063D01*
D02*
G37*
G36*
X862063Y504723D02*
X836472D01*
X832571Y503947D01*
X829263Y501737D01*
X827053Y498429D01*
X826277Y494527D01*
Y468937D01*
X862063D01*
Y504723D01*
D02*
G37*
G36*
X362008Y433064D02*
X299016D01*
X292103Y431689D01*
X286243Y427773D01*
X285138Y426119D01*
X279183D01*
X279183Y426119D01*
X274928Y425273D01*
X271320Y422863D01*
X271320Y422862D01*
X251018Y402560D01*
X248608Y398953D01*
X247762Y394698D01*
X247762Y394697D01*
Y286845D01*
X247762Y286844D01*
X248608Y282589D01*
X251018Y278982D01*
X272862Y257138D01*
X272863Y257137D01*
X276470Y254727D01*
X280725Y253881D01*
X280726Y253881D01*
X285138D01*
X286243Y252227D01*
X292103Y248311D01*
X299016Y246936D01*
X362008D01*
X368921Y248311D01*
X374781Y252227D01*
X378697Y258087D01*
X380072Y265000D01*
X378697Y271913D01*
X374781Y277773D01*
X368921Y281689D01*
X362008Y283064D01*
X299016D01*
X292103Y281689D01*
X286243Y277773D01*
X283907Y277543D01*
X270000Y291450D01*
Y390092D01*
X280993Y401085D01*
X286243Y402227D01*
X292103Y398311D01*
X299016Y396936D01*
X362008D01*
X368921Y398311D01*
X374781Y402227D01*
X377810Y406760D01*
X378374Y407137D01*
X380785Y410745D01*
X381631Y415000D01*
X380785Y419255D01*
X378374Y422863D01*
X377810Y423240D01*
X374781Y427773D01*
X368921Y431689D01*
X362008Y433064D01*
D02*
G37*
G36*
X482087Y476063D02*
X458111D01*
Y461299D01*
X458887Y457397D01*
X461098Y454090D01*
X464405Y451879D01*
X468307Y451103D01*
X482087D01*
Y476063D01*
D02*
G37*
G36*
X503740Y508897D02*
X489961D01*
Y483937D01*
X513936D01*
Y498701D01*
X513160Y502603D01*
X510950Y505910D01*
X507642Y508121D01*
X503740Y508897D01*
D02*
G37*
G36*
X442716Y505093D02*
X407284D01*
X402764Y503221D01*
X400891Y498701D01*
Y491119D01*
X180000D01*
X180000Y491119D01*
X175745Y490273D01*
X172137Y487863D01*
X172137Y487862D01*
X81000Y396725D01*
X74250Y399521D01*
X65000Y400739D01*
X55750Y399521D01*
X47131Y395951D01*
X39729Y390271D01*
X34049Y382869D01*
X30479Y374250D01*
X29261Y365000D01*
X30479Y355750D01*
X34049Y347131D01*
X39729Y339729D01*
X47131Y334049D01*
X55750Y330479D01*
X65000Y329261D01*
X74250Y330479D01*
X82869Y334049D01*
X90271Y339729D01*
X95951Y347131D01*
X99521Y355750D01*
X100739Y365000D01*
X99521Y374250D01*
X96725Y381000D01*
X184606Y468881D01*
X400891D01*
Y461299D01*
X402764Y456779D01*
X407284Y454907D01*
X413881D01*
Y404606D01*
X385394Y376119D01*
X375886D01*
X374781Y377773D01*
X368921Y381689D01*
X362008Y383064D01*
X299016D01*
X292103Y381689D01*
X286243Y377773D01*
X282327Y371913D01*
X280952Y365000D01*
X282327Y358087D01*
X286243Y352227D01*
X292103Y348311D01*
X299016Y346936D01*
X362008D01*
X368921Y348311D01*
X374781Y352227D01*
X375886Y353881D01*
X385394D01*
X388881Y350394D01*
Y317330D01*
X383881Y316837D01*
X383664Y317925D01*
X382553Y323510D01*
X377733Y330725D01*
X370518Y335546D01*
X362008Y337238D01*
X334449D01*
Y315000D01*
Y292762D01*
X362008D01*
X370518Y294454D01*
X377733Y299275D01*
X382553Y306490D01*
X383664Y312075D01*
X383881Y313163D01*
X388881Y312670D01*
Y229606D01*
X385394Y226119D01*
X375886D01*
X374781Y227773D01*
X368921Y231689D01*
X362008Y233064D01*
X299016D01*
X292103Y231689D01*
X286243Y227773D01*
X282327Y221913D01*
X280952Y215000D01*
X282327Y208087D01*
X286243Y202227D01*
X292103Y198311D01*
X299016Y196936D01*
X362008D01*
X368921Y198311D01*
X374781Y202227D01*
X375886Y203881D01*
X390000D01*
X390000Y203881D01*
X394255Y204727D01*
X397863Y207137D01*
X407862Y217137D01*
X407863Y217137D01*
X410273Y220745D01*
X411119Y225000D01*
Y355000D01*
X410273Y359255D01*
X407863Y362862D01*
X408225Y367500D01*
X432862Y392137D01*
X432863Y392137D01*
X435273Y395745D01*
X436119Y400000D01*
X436119Y400000D01*
Y454907D01*
X442716D01*
X447236Y456779D01*
X449109Y461299D01*
Y498701D01*
X447236Y503221D01*
X442716Y505093D01*
D02*
G37*
G36*
X895528Y504723D02*
X869937D01*
Y468937D01*
X905723D01*
Y494527D01*
X904947Y498429D01*
X902737Y501737D01*
X899429Y503947D01*
X895528Y504723D01*
D02*
G37*
G36*
X482087Y508897D02*
X468307D01*
X464405Y508121D01*
X461098Y505910D01*
X458887Y502603D01*
X458111Y498701D01*
Y483937D01*
X482087D01*
Y508897D01*
D02*
G37*
G36*
X905723Y461063D02*
X869937D01*
Y425277D01*
X895528D01*
X899429Y426053D01*
X902737Y428263D01*
X904947Y431571D01*
X905723Y435473D01*
Y461063D01*
D02*
G37*
G36*
X734000Y406119D02*
X734000Y406119D01*
X600000D01*
X595745Y405273D01*
X592138Y402863D01*
X568680Y379405D01*
X563757Y377773D01*
X557897Y381689D01*
X550984Y383064D01*
X487992D01*
X481079Y381689D01*
X475219Y377773D01*
X471303Y371913D01*
X469928Y365000D01*
X471303Y358087D01*
X475219Y352227D01*
X481079Y348311D01*
X487992Y346936D01*
X550984D01*
X557897Y348311D01*
X563757Y352227D01*
X564862Y353881D01*
X570000D01*
X570000Y353881D01*
X574255Y354727D01*
X577862Y357137D01*
X604606Y383881D01*
X729394D01*
X833689Y279586D01*
X831479Y274250D01*
X830261Y265000D01*
X831479Y255750D01*
X835049Y247131D01*
X840729Y239729D01*
X848131Y234049D01*
X856750Y230479D01*
X866000Y229261D01*
X875250Y230479D01*
X883869Y234049D01*
X891271Y239729D01*
X896951Y247131D01*
X900521Y255750D01*
X901739Y265000D01*
X900521Y274250D01*
X896951Y282869D01*
X891271Y290271D01*
X883869Y295951D01*
X875250Y299521D01*
X866000Y300739D01*
X856750Y299521D01*
X848586Y296139D01*
X741862Y402863D01*
X738255Y405273D01*
X734000Y406119D01*
D02*
G37*
G36*
X326575Y311063D02*
X277560D01*
X278470Y306490D01*
X283291Y299275D01*
X290505Y294454D01*
X299016Y292762D01*
X326575D01*
Y311063D01*
D02*
G37*
G36*
X550984Y187238D02*
X523425D01*
Y168937D01*
X572439D01*
X571530Y173510D01*
X566709Y180725D01*
X559495Y185546D01*
X550984Y187238D01*
D02*
G37*
G36*
Y283064D02*
X487992D01*
X481079Y281689D01*
X475219Y277773D01*
X471303Y271913D01*
X469928Y265000D01*
X471303Y258087D01*
X475219Y252227D01*
X481079Y248311D01*
X487992Y246936D01*
X550984D01*
X557897Y248311D01*
X563597Y252120D01*
X598803Y216914D01*
X602080Y214724D01*
X603175Y214506D01*
Y209291D01*
X605047Y204771D01*
X609567Y202899D01*
X680433D01*
X684953Y204771D01*
X686825Y209291D01*
Y238819D01*
X684953Y243339D01*
X680433Y245211D01*
X609567D01*
X605047Y243339D01*
X601625Y242658D01*
X572141Y272142D01*
X568865Y274331D01*
X565627Y274975D01*
X563757Y277773D01*
X557897Y281689D01*
X550984Y283064D01*
D02*
G37*
G36*
X680433Y377101D02*
X609567D01*
X605047Y375229D01*
X603175Y370709D01*
Y365493D01*
X602080Y365276D01*
X598803Y363086D01*
X563597Y327880D01*
X557897Y331689D01*
X550984Y333064D01*
X487992D01*
X481079Y331689D01*
X475219Y327773D01*
X471303Y321913D01*
X469928Y315000D01*
X471303Y308087D01*
X475219Y302227D01*
X481079Y298311D01*
X487992Y296936D01*
X550984D01*
X557897Y298311D01*
X563757Y302227D01*
X565627Y305025D01*
X568865Y305669D01*
X572141Y307858D01*
X601625Y337342D01*
X605047Y336661D01*
X609567Y334789D01*
X680433D01*
X684953Y336661D01*
X686825Y341181D01*
Y370709D01*
X684953Y375229D01*
X680433Y377101D01*
D02*
G37*
G36*
X862063Y461063D02*
X826277D01*
Y435473D01*
X827053Y431571D01*
X829263Y428263D01*
X832571Y426053D01*
X836472Y425277D01*
X862063D01*
Y461063D01*
D02*
G37*
G36*
X326575Y337238D02*
X299016D01*
X290505Y335546D01*
X283291Y330725D01*
X278470Y323510D01*
X277561Y318937D01*
X326575D01*
Y337238D01*
D02*
G37*
G36*
X804000Y436119D02*
X804000Y436119D01*
X529488D01*
X525233Y435273D01*
X521927Y433064D01*
X487992D01*
X481079Y431689D01*
X475219Y427773D01*
X471303Y421913D01*
X469928Y415000D01*
X471303Y408087D01*
X475219Y402227D01*
X481079Y398311D01*
X487992Y396936D01*
X550984D01*
X557897Y398311D01*
X563757Y402227D01*
X567673Y408087D01*
X568825Y413881D01*
X799394D01*
X833689Y379586D01*
X831479Y374250D01*
X830261Y365000D01*
X831479Y355750D01*
X835049Y347131D01*
X840729Y339729D01*
X848131Y334049D01*
X856750Y330479D01*
X866000Y329261D01*
X875250Y330479D01*
X883869Y334049D01*
X891271Y339729D01*
X896951Y347131D01*
X900521Y355750D01*
X901739Y365000D01*
X900521Y374250D01*
X896951Y382869D01*
X891271Y390271D01*
X883869Y395951D01*
X875250Y399521D01*
X866000Y400739D01*
X856750Y399521D01*
X848586Y396139D01*
X811862Y432863D01*
X808255Y435273D01*
X804000Y436119D01*
D02*
G37*
%LPD*%
D10*
X425000Y480000D02*
D03*
X486024D02*
D03*
D11*
X519488Y65000D02*
D03*
Y115000D02*
D03*
Y165000D02*
D03*
Y215000D02*
D03*
Y265000D02*
D03*
Y315000D02*
D03*
Y365000D02*
D03*
Y415000D02*
D03*
X330512Y65000D02*
D03*
Y115000D02*
D03*
Y165000D02*
D03*
Y215000D02*
D03*
Y265000D02*
D03*
Y315000D02*
D03*
Y365000D02*
D03*
Y415000D02*
D03*
D12*
X645000Y64488D02*
D03*
Y125512D02*
D03*
D13*
Y224055D02*
D03*
Y355945D02*
D03*
D14*
X734000Y395000D02*
X864000Y265000D01*
X600000Y395000D02*
X734000D01*
X854000Y175000D02*
X864000Y165000D01*
X610000Y175000D02*
X854000D01*
X570000Y215000D02*
X610000Y175000D01*
X258881Y394698D02*
X279183Y415000D01*
X258881Y286844D02*
Y394698D01*
Y286844D02*
X280725Y265000D01*
X279183Y415000D02*
X330512D01*
X280725Y265000D02*
X330512D01*
X645000Y64488D02*
X864000D01*
X519488Y215000D02*
X570000D01*
Y365000D02*
X600000Y395000D01*
X519488Y365000D02*
X570000D01*
X425000Y400000D02*
Y480000D01*
X115000Y115000D02*
X330512D01*
X65000Y65000D02*
X330512D01*
X180000Y480000D02*
X425000D01*
X165000Y165000D02*
X330512D01*
Y415000D02*
X370512D01*
X65000Y365000D02*
X180000Y480000D01*
X390000Y365000D02*
X425000Y400000D01*
X390000Y215000D02*
X400000Y225000D01*
X330512Y215000D02*
X390000D01*
X629488Y65000D02*
X630000Y64488D01*
X519488Y65000D02*
X629488D01*
X630000Y64488D02*
X645000D01*
X65000Y265000D02*
X165000Y165000D01*
X65000D02*
X115000Y115000D01*
X330512Y365000D02*
X390000D01*
X400000Y355000D01*
Y225000D02*
Y355000D01*
X529488Y425000D02*
X804000D01*
X864000Y365000D01*
X519488Y415000D02*
X529488Y425000D01*
D15*
X519488Y315000D02*
X565000D01*
X605945Y355945D01*
X645000D01*
X519488Y265000D02*
X565000D01*
X605945Y224055D01*
X645000D01*
D16*
X866000Y465000D02*
D03*
D17*
Y365000D02*
D03*
Y265000D02*
D03*
Y165000D02*
D03*
Y65000D02*
D03*
X65000Y365000D02*
D03*
Y265000D02*
D03*
Y165000D02*
D03*
Y65000D02*
D03*
%TF.MD5,f433fd76f0c6acf1313d9194e3d6a98c*%
M02*
