G04 Layer_Color=32896*
%FSLAX26Y26*%
%MOIN*%
%TF.FileFunction,Legend,Bot*%
%TF.Part,Single*%
G01*
G75*
%TA.AperFunction,NonConductor*%
%ADD18C,0.007000*%
%ADD19C,0.020000*%
%ADD20C,0.038000*%
%ADD21C,0.001395*%
%ADD22C,0.008000*%
D18*
X432000Y239000D02*
G03*
X432000Y209000I0J-15000D01*
G01*
X500000Y264000D02*
G03*
X500000Y294000I0J15000D01*
G01*
X432000D02*
G03*
X432000Y264000I0J-15000D01*
G01*
X500000Y209000D02*
G03*
X500000Y239000I0J15000D01*
G01*
X432000Y294000D02*
X500000D01*
X432000Y264000D02*
X500000D01*
X432000Y209000D02*
X500000D01*
X432000Y239000D02*
X500000D01*
X773342Y478323D02*
X780006Y484987D01*
X793336D01*
X800000Y478323D01*
Y451664D01*
X793336Y445000D01*
X780006D01*
X773342Y451664D01*
Y464993D01*
X786671D01*
X760013Y445000D02*
Y484987D01*
X733355Y445000D01*
Y484987D01*
X720026D02*
Y445000D01*
X700032D01*
X693368Y451664D01*
Y478323D01*
X700032Y484987D01*
X720026D01*
X800000Y384987D02*
X786671D01*
X793336D01*
Y345000D01*
X800000D01*
X786671D01*
X766677D02*
Y384987D01*
X740019Y345000D01*
Y384987D01*
X726690Y345000D02*
Y384987D01*
X700032Y345000D01*
Y384987D01*
X800000Y83987D02*
Y57329D01*
X786671Y44000D01*
X773342Y57329D01*
Y83987D01*
X760013D02*
Y44000D01*
X740019D01*
X733355Y50664D01*
Y77323D01*
X740019Y83987D01*
X760013D01*
X720026D02*
Y44000D01*
X700032D01*
X693368Y50664D01*
Y77323D01*
X700032Y83987D01*
X720026D01*
X773342Y178323D02*
X780006Y184987D01*
X793336D01*
X800000Y178323D01*
Y171658D01*
X793336Y164994D01*
X780006D01*
X773342Y158329D01*
Y151665D01*
X780006Y145000D01*
X793336D01*
X800000Y151665D01*
X760013Y145000D02*
Y184987D01*
X740019D01*
X733355Y178323D01*
Y164994D01*
X740019Y158329D01*
X760013D01*
X720026Y184987D02*
Y145000D01*
X700032D01*
X693368Y151665D01*
Y178323D01*
X700032Y184987D01*
X720026D01*
X800000Y284987D02*
X786671D01*
X793336D01*
Y245000D01*
X800000D01*
X786671D01*
X766677D02*
Y284987D01*
X740019Y245000D01*
Y284987D01*
X726690Y245000D02*
Y284987D01*
X706697D01*
X700032Y278323D01*
Y264993D01*
X706697Y258329D01*
X726690D01*
D19*
X629012Y225000D02*
G03*
X629012Y225000I-163012J0D01*
G01*
D20*
X433000Y168000D02*
X499000D01*
D21*
X177040Y464185D02*
X190988D01*
X192382Y497660D02*
X207726D01*
X161697Y471159D02*
X190988D01*
X319309Y478133D02*
X333257D01*
X337442Y492081D02*
X368127D01*
X609428Y455816D02*
X627561D01*
X337442Y458606D02*
X368127D01*
X589901Y480922D02*
X605244D01*
X144959Y457211D02*
X157512D01*
X570374Y499055D02*
X588506D01*
X430894Y473948D02*
X440657D01*
X415551Y453026D02*
X429499D01*
X128222Y462790D02*
X144959D01*
X338837Y475343D02*
X368127D01*
X627561Y478133D02*
X652667D01*
X242595Y450237D02*
X256543D01*
X75219Y482317D02*
X90562D01*
X457395Y462790D02*
X469948D01*
X161697Y457211D02*
X190988D01*
X260728Y471159D02*
X290019D01*
X415551Y454421D02*
X429499D01*
X132406Y471159D02*
X146354D01*
X640114Y499055D02*
X652667D01*
X609428Y497660D02*
X623376D01*
X161697Y494870D02*
X190988D01*
X444842Y472553D02*
X456000D01*
X337442Y448842D02*
X368127D01*
X124037Y460000D02*
X143565D01*
X132406Y472553D02*
X146354D01*
X609428Y483712D02*
X623376D01*
X354179Y464185D02*
X368127D01*
X429499Y478133D02*
X440657D01*
X177040Y482317D02*
X190988D01*
X396024Y460000D02*
X409972D01*
X192382Y499055D02*
X207726D01*
X202146Y468369D02*
X216094D01*
X294203Y486502D02*
X313730D01*
X260728Y475343D02*
X290019D01*
X199357Y478133D02*
X213305D01*
X638719Y494870D02*
X652667D01*
X199357Y476738D02*
X213305D01*
X511792Y482317D02*
X527135D01*
X338837Y473948D02*
X368127D01*
X370917Y465579D02*
X384865D01*
X195172Y489291D02*
X210515D01*
X207726Y451631D02*
X225858D01*
X557821Y489291D02*
X601059D01*
X490870Y461395D02*
X504818D01*
X161697Y496265D02*
X190988D01*
X557821Y490686D02*
X601059D01*
X337442Y454421D02*
X368127D01*
X197962Y480922D02*
X211910D01*
X129617Y464185D02*
X144959D01*
X415551Y457211D02*
X429499D01*
X609428Y487896D02*
X623376D01*
X415551Y483712D02*
X437868D01*
X490870Y462790D02*
X504818D01*
X337442Y487896D02*
X368127D01*
X93352Y466974D02*
X107300D01*
X161697Y476738D02*
X190988D01*
X242595Y492081D02*
X256543D01*
X37560Y480922D02*
X54297D01*
X144959Y454421D02*
X157512D01*
X373707Y486502D02*
X390444D01*
X552241Y472553D02*
X566189D01*
X177040Y465579D02*
X190988D01*
X588506Y483712D02*
X605244D01*
X242595Y487896D02*
X256543D01*
X628955Y479528D02*
X652667D01*
X242595Y499055D02*
X256543D01*
X591296Y471159D02*
X606638D01*
X354179Y483712D02*
X368127D01*
X584322Y486502D02*
X603849D01*
X450421Y490686D02*
X469948D01*
X131011Y466974D02*
X144959D01*
X292808Y448842D02*
X309546D01*
X37560Y472553D02*
X51508D01*
X553636Y462790D02*
X570374D01*
X45929Y493476D02*
X83588D01*
X415551Y473948D02*
X428104D01*
X475527Y487896D02*
X504818D01*
X260728Y469764D02*
X290019D01*
X475527Y494870D02*
X504818D01*
X624771Y473948D02*
X638719D01*
X319309Y480922D02*
X333257D01*
X432288Y468369D02*
X453210D01*
X301177Y460000D02*
X317915D01*
X532714Y469764D02*
X545267D01*
X396024Y461395D02*
X409972D01*
X591296Y466974D02*
X606638D01*
X129617Y480922D02*
X144959D01*
X475527Y489291D02*
X504818D01*
X509002Y493476D02*
X522951D01*
X415551Y458606D02*
X429499D01*
X242595Y464185D02*
X256543D01*
X91957Y479528D02*
X107300D01*
X292808Y482317D02*
X308151D01*
X457395Y472553D02*
X469948D01*
X556426Y458606D02*
X602454D01*
X220279Y475343D02*
X232832D01*
X107300Y497660D02*
X131011D01*
X457395Y453026D02*
X469948D01*
X37560Y471159D02*
X51508D01*
X640114Y460000D02*
X652667D01*
X55692Y447447D02*
X73825D01*
X161697Y451631D02*
X190988D01*
X591296Y469764D02*
X606638D01*
X375102Y478133D02*
X409972D01*
X552241D02*
X567584D01*
Y448842D02*
X591296D01*
X45929Y453026D02*
X83588D01*
X308151Y499055D02*
X333257D01*
X206331Y457211D02*
X227253D01*
X200751Y475343D02*
X214699D01*
X296993Y492081D02*
X333257D01*
X449026Y489291D02*
X469948D01*
X207726Y454421D02*
X227253D01*
X302572Y465579D02*
X333257D01*
X535504Y479528D02*
X549452D01*
X197962Y483712D02*
X211910D01*
X260728Y489291D02*
X290019D01*
X75219Y464185D02*
X90562D01*
X437868Y448842D02*
X449026D01*
X51508Y497660D02*
X76614D01*
X94747Y485107D02*
X111484D01*
X69640Y486502D02*
X89167D01*
X126827Y461395D02*
X143565D01*
X242595Y476738D02*
X256543D01*
X609428Y493476D02*
X623376D01*
X103115Y494870D02*
X135196D01*
X193778D02*
X207726D01*
X490870Y480922D02*
X504818D01*
X415551Y461395D02*
X429499D01*
X75219Y465579D02*
X90562D01*
X132406Y475343D02*
X146354D01*
X242595Y461395D02*
X256543D01*
X396024Y465579D02*
X409972D01*
X44534Y492081D02*
X84983D01*
X609428Y479528D02*
X623376D01*
X195172Y492081D02*
X209120D01*
X43139Y490686D02*
X86378D01*
X415551Y469764D02*
X429499D01*
X294203Y450237D02*
X310941D01*
X532714Y472553D02*
X546662D01*
X609428Y460000D02*
X628955D01*
X446236Y480922D02*
X469948D01*
X513187Y478133D02*
X527135D01*
X475527Y473948D02*
X504818D01*
X292808Y447447D02*
X308151D01*
X337442Y493476D02*
X368127D01*
X209120Y450237D02*
X224463D01*
X144959Y451631D02*
X157512D01*
X415551Y497660D02*
X435078D01*
X609428Y447447D02*
X621981D01*
X100326Y492081D02*
X139380D01*
X384865Y499055D02*
X409972D01*
X37560Y475343D02*
X51508D01*
X295598Y453026D02*
X312336D01*
X415551Y496265D02*
X435078D01*
X319309Y482317D02*
X333257D01*
X591296Y476738D02*
X606638D01*
X415551Y447447D02*
X429499D01*
X457395Y475343D02*
X469948D01*
X276071Y483712D02*
X290019D01*
X623376Y469764D02*
X635929D01*
X630350Y482317D02*
X652667D01*
X225858Y496265D02*
X239806D01*
X204936Y460000D02*
X228648D01*
X380681Y497660D02*
X409972D01*
X380681Y448842D02*
X409972D01*
X457395Y465579D02*
X469948D01*
X511792Y483712D02*
X525740D01*
X475527Y499055D02*
X504818D01*
X436473Y451631D02*
X449026D01*
X161697Y458606D02*
X190988D01*
X552241Y471159D02*
X566189D01*
X242595Y490686D02*
X256543D01*
X429499Y475343D02*
X440657D01*
X373707Y485107D02*
X387655D01*
X555031Y461395D02*
X571768D01*
X221673Y485107D02*
X237016D01*
X223068Y487896D02*
X237016D01*
X475527Y454421D02*
X504818D01*
X415551Y455816D02*
X429499D01*
X513187Y480922D02*
X527135D01*
X475527Y471159D02*
X504818D01*
X396024Y482317D02*
X409972D01*
X555031Y485107D02*
X571768D01*
X97536Y457211D02*
X140775D01*
X538293Y492081D02*
X553636D01*
X557821Y457211D02*
X601059D01*
X588506Y462790D02*
X605244D01*
X507608Y496265D02*
X522951D01*
X475527Y451631D02*
X504818D01*
X373707Y482317D02*
X387655D01*
X376496Y476738D02*
X409972D01*
X129617Y482317D02*
X144959D01*
X224463Y493476D02*
X239806D01*
X76614Y466974D02*
X90562D01*
X475527Y450237D02*
X504818D01*
X511792Y485107D02*
X525740D01*
X640114Y464185D02*
X652667D01*
X375102Y453026D02*
X409972D01*
X319309Y451631D02*
X333257D01*
X447631Y482317D02*
X469948D01*
X541083Y497660D02*
X555031D01*
X640114Y457211D02*
X652667D01*
X319309Y476738D02*
X333257D01*
X76614Y472553D02*
X91957D01*
X93352Y482317D02*
X108695D01*
X415551Y493476D02*
X435078D01*
X609428Y480922D02*
X623376D01*
X591296Y479528D02*
X606638D01*
X444842Y473948D02*
X456000D01*
X131011Y478133D02*
X146354D01*
X631745Y485107D02*
X652667D01*
X354179Y486502D02*
X368127D01*
X260728Y497660D02*
X290019D01*
X177040Y485107D02*
X190988D01*
X220279Y479528D02*
X234227D01*
X354179Y462790D02*
X368127D01*
X276071Y479528D02*
X290019D01*
X415551Y465579D02*
X429499D01*
X559215Y454421D02*
X599664D01*
X609428Y453026D02*
X624771D01*
X534109Y473948D02*
X548057D01*
X375102Y492081D02*
X409972D01*
X591296Y475343D02*
X606638D01*
X609428Y451631D02*
X624771D01*
X630350Y480922D02*
X652667D01*
X338837Y476738D02*
X368127D01*
X161697Y493476D02*
X190988D01*
X436473Y453026D02*
X449026D01*
X94747Y462790D02*
X110089D01*
X609428Y486502D02*
X623376D01*
X524345Y447447D02*
X538293D01*
X589901Y482317D02*
X605244D01*
X475527Y448842D02*
X506213D01*
X76614Y468369D02*
X91957D01*
X430894Y472553D02*
X442052D01*
X437868Y450237D02*
X449026D01*
X563400Y494870D02*
X595480D01*
X72430Y461395D02*
X89167D01*
X538293Y489291D02*
X552241D01*
X224463Y492081D02*
X239806D01*
X534109Y476738D02*
X548057D01*
X298387Y493476D02*
X333257D01*
X203541Y465579D02*
X216094D01*
X161697Y478133D02*
X190988D01*
X50113Y450237D02*
X79404D01*
X96141Y458606D02*
X142170D01*
X429499Y476738D02*
X440657D01*
X197962Y482317D02*
X211910D01*
X161697Y487896D02*
X190988D01*
X242595Y482317D02*
X256543D01*
X511792Y486502D02*
X525740D01*
X555031D02*
X574558D01*
X532714Y471159D02*
X546662D01*
X223068Y486502D02*
X237016D01*
X55692Y499055D02*
X73825D01*
X475527Y475343D02*
X504818D01*
X557821Y455816D02*
X601059D01*
X609428Y466974D02*
X634534D01*
X536898Y483712D02*
X550846D01*
X638719Y496265D02*
X652667D01*
X218884Y473948D02*
X232832D01*
X640114Y454421D02*
X652667D01*
X292808Y479528D02*
X306756D01*
X372312Y455816D02*
X409972D01*
X475527Y497660D02*
X506213D01*
X415551Y478133D02*
X428104D01*
X457395Y460000D02*
X469948D01*
X103115Y451631D02*
X135196D01*
X144959Y458606D02*
X157512D01*
X375102Y472553D02*
X409972D01*
X429499Y479528D02*
X439262D01*
X302572Y497660D02*
X333257D01*
X609428Y472553D02*
X623376D01*
X37560Y466974D02*
X52903D01*
X260728Y487896D02*
X290019D01*
X560610Y493476D02*
X598270D01*
X354179Y480922D02*
X368127D01*
X242595Y471159D02*
X256543D01*
X517371Y465579D02*
X543872D01*
X161697Y479528D02*
X190988D01*
X319309Y460000D02*
X333257D01*
X301177Y496265D02*
X333257D01*
X609428Y499055D02*
X623376D01*
X433683Y464185D02*
X453210D01*
X52903Y448842D02*
X76614D01*
X509002Y490686D02*
X524345D01*
X475527Y455816D02*
X504818D01*
X640114Y475343D02*
X652667D01*
X446236Y479528D02*
X469948D01*
X457395Y458606D02*
X469948D01*
X296993Y469764D02*
X333257D01*
X295598Y473948D02*
X333257D01*
X260728Y486502D02*
X262123D01*
X276071Y458606D02*
X290019D01*
X202146Y471159D02*
X216094D01*
X96141Y460000D02*
X114274D01*
X298387Y455816D02*
X313730D01*
X437868Y447447D02*
X447631D01*
X589901Y464185D02*
X605244D01*
X415551Y476738D02*
X428104D01*
X521556Y454421D02*
X541083D01*
X295598Y471159D02*
X333257D01*
X552241Y479528D02*
X567584D01*
X337442Y489291D02*
X368127D01*
X435078Y458606D02*
X451816D01*
X552241Y475343D02*
X566189D01*
X242595Y494870D02*
X256543D01*
X37560Y476738D02*
X51508D01*
X370917Y460000D02*
X394629D01*
X276071Y461395D02*
X290019D01*
X446236Y478133D02*
X456000D01*
X225858Y494870D02*
X239806D01*
X319309Y479528D02*
X333257D01*
X609428Y464185D02*
X631745D01*
X220279Y476738D02*
X234227D01*
X609428Y490686D02*
X623376D01*
X475527Y496265D02*
X504818D01*
X144959Y460000D02*
X157512D01*
X161697Y469764D02*
X190988D01*
X513187Y479528D02*
X527135D01*
X415551Y492081D02*
X436473D01*
X242595Y473948D02*
X256543D01*
X451816Y496265D02*
X469948D01*
X370917Y464185D02*
X384865D01*
X553636Y480922D02*
X568979D01*
X475527Y457211D02*
X504818D01*
X609428Y465579D02*
X633140D01*
X433683D02*
X453210D01*
X97536Y489291D02*
X140775D01*
X177040Y462790D02*
X190988D01*
X609428Y494870D02*
X623376D01*
X221673Y480922D02*
X235621D01*
X640114Y468369D02*
X652667D01*
X242595Y447447D02*
X256543D01*
X514582Y473948D02*
X528530D01*
X609428Y450237D02*
X623376D01*
X161697Y486502D02*
X163092D01*
X260728Y473948D02*
X290019D01*
X372312Y468369D02*
X409972D01*
X552241Y466974D02*
X567584D01*
X294203Y476738D02*
X308151D01*
X220279Y478133D02*
X234227D01*
X303967Y462790D02*
X333257D01*
X131011Y476738D02*
X146354D01*
X475527Y472553D02*
X504818D01*
X218884D02*
X232832D01*
X295598Y489291D02*
X333257D01*
X429499Y480922D02*
X439262D01*
X451816Y497660D02*
X469948D01*
X40349Y485107D02*
X57087D01*
X242595Y478133D02*
X256543D01*
X490870Y483712D02*
X504818D01*
X415551Y472553D02*
X428104D01*
X319309Y485107D02*
X333257D01*
X38955Y462790D02*
X55692D01*
X591296Y478133D02*
X606638D01*
X276071Y482317D02*
X290019D01*
X510397Y487896D02*
X524345D01*
X384865Y447447D02*
X409972D01*
X260728Y492081D02*
X290019D01*
X415551Y490686D02*
X436473D01*
X447631Y483712D02*
X469948D01*
X631745D02*
X652667D01*
X217489Y469764D02*
X231437D01*
X276071Y464185D02*
X290019D01*
X552241Y468369D02*
X567584D01*
X203541Y466974D02*
X216094D01*
X396024Y486502D02*
X409972D01*
X640114Y461395D02*
X652667D01*
X100326Y493476D02*
X137985D01*
X449026Y485107D02*
X469948D01*
X552241Y473948D02*
X566189D01*
X337442Y451631D02*
X368127D01*
X373707Y487896D02*
X409972D01*
X131011Y469764D02*
X146354D01*
X521556Y455816D02*
X541083D01*
X276071Y457211D02*
X290019D01*
X242595Y451631D02*
X256543D01*
X161697Y460000D02*
X190988D01*
X161697Y490686D02*
X190988D01*
X242595Y453026D02*
X256543D01*
X37560Y468369D02*
X52903D01*
X515976Y471159D02*
X529924D01*
X76614Y478133D02*
X91957D01*
X242595Y475343D02*
X256543D01*
X161697Y448842D02*
X190988D01*
X338837Y472553D02*
X368127D01*
X337442Y450237D02*
X368127D01*
X96141Y487896D02*
X142170D01*
X276071Y462790D02*
X290019D01*
X475527Y476738D02*
X504818D01*
X490870Y482317D02*
X504818D01*
X195172Y490686D02*
X210515D01*
X457395Y471159D02*
X469948D01*
X522951Y448842D02*
X539688D01*
X589901Y465579D02*
X605244D01*
X640114Y450237D02*
X652667D01*
X457395Y464185D02*
X469948D01*
X276071Y454421D02*
X290019D01*
X396024Y462790D02*
X409972D01*
X640114Y473948D02*
X652667D01*
X338837Y478133D02*
X368127D01*
X475527Y492081D02*
X504818D01*
X415551Y451631D02*
X429499D01*
X609428Y485107D02*
X623376D01*
X319309Y461395D02*
X333257D01*
X93352Y483712D02*
X110089D01*
X242595Y493476D02*
X256543D01*
X640114Y453026D02*
X652667D01*
X50113Y496265D02*
X79404D01*
X161697Y497660D02*
X190988D01*
X457395Y457211D02*
X469948D01*
X430894Y471159D02*
X442052D01*
X553636Y482317D02*
X568979D01*
X242595Y458606D02*
X256543D01*
X640114Y455816D02*
X652667D01*
X370917Y462790D02*
X384865D01*
X559215Y492081D02*
X599664D01*
X242595Y472553D02*
X256543D01*
X373707Y483712D02*
X387655D01*
X40349Y486502D02*
X59877D01*
X225858Y499055D02*
X241201D01*
X242595Y468369D02*
X256543D01*
X206331Y455816D02*
X227253D01*
X129617Y465579D02*
X144959D01*
X609428Y457211D02*
X627561D01*
X475527Y458606D02*
X504818D01*
X260728Y468369D02*
X290019D01*
X415551Y475343D02*
X428104D01*
X372312Y469764D02*
X409972D01*
X640114Y497660D02*
X652667D01*
X242595Y454421D02*
X256543D01*
X276071Y453026D02*
X290019D01*
X475527Y468369D02*
X504818D01*
X319309Y486502D02*
X333257D01*
X507608Y499055D02*
X521556D01*
X457395Y473948D02*
X469948D01*
X217489Y466974D02*
X231437D01*
X202146Y469764D02*
X216094D01*
X144959Y455816D02*
X157512D01*
X354179Y482317D02*
X368127D01*
X354179Y485107D02*
X368127D01*
X242595Y489291D02*
X256543D01*
X294203Y475343D02*
X309546D01*
X276071Y465579D02*
X290019D01*
X609428Y468369D02*
X634534D01*
X415551Y482317D02*
X439262D01*
X450421Y494870D02*
X469948D01*
X37560Y473948D02*
X51508D01*
X457395Y450237D02*
X469948D01*
X161697Y453026D02*
X190988D01*
X518766Y462790D02*
X543872D01*
X609428Y473948D02*
X623376D01*
X337442Y499055D02*
X366733D01*
X415551Y468369D02*
X429499D01*
X242595Y462790D02*
X256543D01*
X450421Y493476D02*
X469948D01*
X609428Y469764D02*
X621981D01*
X41744Y489291D02*
X86378D01*
X457395Y468369D02*
X469948D01*
X518766Y461395D02*
X543872D01*
X637324Y493476D02*
X652667D01*
X337442Y457211D02*
X368127D01*
X521556Y453026D02*
X539688D01*
X560610D02*
X598270D01*
X449026Y486502D02*
X469948D01*
X450421Y492081D02*
X469948D01*
X490870Y486502D02*
X504818D01*
X415551Y466974D02*
X429499D01*
X570374Y447447D02*
X588506D01*
X475527Y479528D02*
X504818D01*
X539688Y493476D02*
X553636D01*
X538293Y490686D02*
X552241D01*
X415551Y480922D02*
X428104D01*
X337442Y460000D02*
X368127D01*
X203541Y464185D02*
X230042D01*
X564794Y450237D02*
X594085D01*
X196567Y486502D02*
X210515D01*
X276071D02*
X290019D01*
X128222Y483712D02*
X144959D01*
X640114Y466974D02*
X652667D01*
X319309Y448842D02*
X333257D01*
X415551Y486502D02*
X437868D01*
X319309Y450237D02*
X333257D01*
X592691Y472553D02*
X606638D01*
X260728Y490686D02*
X290019D01*
X517371Y468369D02*
X531319D01*
X93352Y464185D02*
X108695D01*
X131011Y468369D02*
X146354D01*
X640114Y458606D02*
X652667D01*
X396024Y466974D02*
X409972D01*
X640114Y448842D02*
X652667D01*
X144959Y450237D02*
X157512D01*
X196567Y485107D02*
X211910D01*
X457395Y455816D02*
X469948D01*
X553636Y464185D02*
X568979D01*
X298387Y468369D02*
X333257D01*
X132406Y473948D02*
X146354D01*
X435078Y460000D02*
X451816D01*
X587111Y461395D02*
X603849D01*
X296993Y454421D02*
X313730D01*
X354179Y466974D02*
X368127D01*
X276071Y447447D02*
X290019D01*
X609428Y475343D02*
X623376D01*
X436473Y455816D02*
X450421D01*
X535504Y478133D02*
X548057D01*
X415551Y479528D02*
X428104D01*
X260728Y496265D02*
X290019D01*
X564794D02*
X594085D01*
X640114Y469764D02*
X652667D01*
X640114Y447447D02*
X652667D01*
X555031Y460000D02*
X574558D01*
X319309Y455816D02*
X333257D01*
X204936Y462790D02*
X228648D01*
X535504Y482317D02*
X549452D01*
X37560Y465579D02*
X54297D01*
X626166Y475343D02*
X638719D01*
X640114Y451631D02*
X652667D01*
X609428Y482317D02*
X623376D01*
X433683Y461395D02*
X451816D01*
X517371Y466974D02*
X545267D01*
X161697Y473948D02*
X190988D01*
X536898Y485107D02*
X550846D01*
X396024Y480922D02*
X409972D01*
X242595Y497660D02*
X256543D01*
X206331Y458606D02*
X227253D01*
X104510Y496265D02*
X133801D01*
X98931Y455816D02*
X139380D01*
X276071Y448842D02*
X290019D01*
X110089Y447447D02*
X128222D01*
X490870Y485107D02*
X504818D01*
X536898Y487896D02*
X552241D01*
X161697Y499055D02*
X190988D01*
X204936Y461395D02*
X228648D01*
X319309Y457211D02*
X333257D01*
X396024Y464185D02*
X409972D01*
X37560Y469764D02*
X51508D01*
X193778Y496265D02*
X207726D01*
X373707Y454421D02*
X409972D01*
X242595Y465579D02*
X256543D01*
X634534Y489291D02*
X652667D01*
X38955Y483712D02*
X55692D01*
X415551Y448842D02*
X429499D01*
X295598Y451631D02*
X310941D01*
X337442Y490686D02*
X368127D01*
X242595Y496265D02*
X256543D01*
X221673Y482317D02*
X235621D01*
X449026Y487896D02*
X469948D01*
X161697Y489291D02*
X190988D01*
X200751Y472553D02*
X214699D01*
X242595Y455816D02*
X256543D01*
X76614Y473948D02*
X91957D01*
X624771Y472553D02*
X637324D01*
X292808Y480922D02*
X306756D01*
X563400Y451631D02*
X595480D01*
X292808Y483712D02*
X308151D01*
X193778Y493476D02*
X209120D01*
X98931Y490686D02*
X140775D01*
X507608Y494870D02*
X522951D01*
X475527Y469764D02*
X504818D01*
X640114Y471159D02*
X652667D01*
X609428Y458606D02*
X628955D01*
X415551Y450237D02*
X429499D01*
X196567Y487896D02*
X210515D01*
X457395Y447447D02*
X469948D01*
X415551Y460000D02*
X429499D01*
X144959Y453026D02*
X157512D01*
X337442Y496265D02*
X368127D01*
X242595Y469764D02*
X256543D01*
X41744Y487896D02*
X87772D01*
X457395Y451631D02*
X469948D01*
X217489Y465579D02*
X230042D01*
X260728Y493476D02*
X290019D01*
X218884Y471159D02*
X231437D01*
X260728Y472553D02*
X290019D01*
X370917Y458606D02*
X409972D01*
X104510Y450237D02*
X133801D01*
X514582Y476738D02*
X528530D01*
X161697Y492081D02*
X190988D01*
X144959Y448842D02*
X157512D01*
X379286Y475343D02*
X409972D01*
X634534Y487896D02*
X652667D01*
X415551Y499055D02*
X433683D01*
X453210D02*
X469948D01*
X94747Y461395D02*
X112879D01*
X415551Y487896D02*
X436473D01*
X539688Y494870D02*
X553636D01*
X522951Y450237D02*
X539688D01*
X536898Y486502D02*
X552241D01*
X338837Y468369D02*
X368127D01*
X444842Y475343D02*
X456000D01*
X242595Y479528D02*
X256543D01*
X144959Y447447D02*
X157512D01*
X161697Y475343D02*
X190988D01*
X475527Y460000D02*
X504818D01*
X76614Y475343D02*
X91957D01*
X372312Y457211D02*
X409972D01*
X509002Y492081D02*
X522951D01*
X76614Y471159D02*
X91957D01*
X415551Y494870D02*
X435078D01*
X299782Y457211D02*
X315125D01*
X609428Y462790D02*
X631745D01*
X242595Y448842D02*
X256543D01*
X301177Y458606D02*
X316520D01*
X177040Y461395D02*
X190988D01*
X354179D02*
X368127D01*
X260728Y476738D02*
X290019D01*
X199357Y479528D02*
X213305D01*
X161697Y472553D02*
X190988D01*
X319309Y447447D02*
X333257D01*
X435078Y457211D02*
X450421D01*
X131011Y479528D02*
X144959D01*
X432288Y466974D02*
X453210D01*
X490870Y464185D02*
X504818D01*
X609428Y489291D02*
X623376D01*
X302572Y461395D02*
X317915D01*
X260728Y466974D02*
X290019D01*
X514582Y475343D02*
X528530D01*
X305361Y464185D02*
X333257D01*
X161697Y455816D02*
X190988D01*
X242595Y480922D02*
X256543D01*
X110089Y499055D02*
X128222D01*
X587111Y485107D02*
X603849D01*
X457395Y448842D02*
X469948D01*
X379286Y496265D02*
X409972D01*
X475527Y490686D02*
X504818D01*
X377891Y450237D02*
X409972D01*
X47323Y451631D02*
X80799D01*
X552241Y476738D02*
X566189D01*
X76614D02*
X91957D01*
X224463Y490686D02*
X238411D01*
X337442Y447447D02*
X366733D01*
X96141Y486502D02*
X114274D01*
X457395Y454421D02*
X469948D01*
X609428Y461395D02*
X630350D01*
X225858Y497660D02*
X241201D01*
X177040Y466974D02*
X190988D01*
X532714Y468369D02*
X545267D01*
X376496Y451631D02*
X409972D01*
X522951D02*
X539688D01*
X217489Y468369D02*
X231437D01*
X539688Y496265D02*
X555031D01*
X337442Y497660D02*
X368127D01*
X177040Y486502D02*
X190988D01*
X534109Y475343D02*
X548057D01*
X640114Y462790D02*
X652667D01*
X242595Y485107D02*
X256543D01*
X553636Y465579D02*
X568979D01*
X446236Y476738D02*
X456000D01*
X490870Y466974D02*
X504818D01*
X376496Y473948D02*
X409972D01*
X319309Y458606D02*
X333257D01*
X93352Y465579D02*
X108695D01*
X276071Y460000D02*
X290019D01*
X415551Y489291D02*
X436473D01*
X260728Y499055D02*
X290019D01*
X609428Y471159D02*
X635929D01*
X640114Y472553D02*
X652667D01*
X37560Y478133D02*
X52903D01*
X444842Y471159D02*
X454605D01*
X520161Y457211D02*
X541083D01*
X370917Y466974D02*
X386260D01*
X490870Y465579D02*
X504818D01*
X457395Y461395D02*
X469948D01*
X338837Y479528D02*
X368127D01*
X518766Y464185D02*
X543872D01*
X299782Y494870D02*
X333257D01*
X209120Y447447D02*
X224463D01*
X373707Y480922D02*
X389050D01*
X337442Y453026D02*
X368127D01*
X520161Y460000D02*
X542478D01*
X276071Y450237D02*
X290019D01*
X592691Y473948D02*
X606638D01*
X107300Y448842D02*
X131011D01*
X100326Y453026D02*
X136590D01*
X37560Y479528D02*
X52903D01*
X44534Y454421D02*
X83588D01*
X242595Y466974D02*
X256543D01*
X338837Y469764D02*
X368127D01*
X567584Y497660D02*
X591296D01*
X177040Y480922D02*
X190988D01*
X457395Y476738D02*
X469948D01*
X510397Y489291D02*
X524345D01*
X126827Y485107D02*
X143565D01*
X373707Y489291D02*
X409972D01*
X294203Y485107D02*
X309546D01*
X69640Y460000D02*
X89167D01*
X242595D02*
X256543D01*
X76614Y469764D02*
X91957D01*
X294203Y478133D02*
X308151D01*
X415551Y462790D02*
X429499D01*
X294203Y487896D02*
X333257D01*
X520161Y458606D02*
X542478D01*
X553636Y483712D02*
X570374D01*
X319309Y453026D02*
X333257D01*
X609428Y448842D02*
X623376D01*
X295598Y490686D02*
X333257D01*
X609428Y476738D02*
X623376D01*
X209120Y448842D02*
X224463D01*
X457395Y466974D02*
X469948D01*
X415551Y464185D02*
X429499D01*
X475527Y453026D02*
X504818D01*
X177040Y483712D02*
X190988D01*
X242595Y457211D02*
X256543D01*
X337442Y494870D02*
X368127D01*
X276071Y485107D02*
X290019D01*
X584322Y460000D02*
X603849D01*
X276071Y455816D02*
X290019D01*
X40349Y460000D02*
X59877D01*
X433683Y462790D02*
X451816D01*
X535504Y480922D02*
X549452D01*
X40349Y461395D02*
X57087D01*
X552241Y469764D02*
X566189D01*
X627561Y476738D02*
X652667D01*
X242595Y483712D02*
X256543D01*
X337442Y455816D02*
X368127D01*
X72430Y485107D02*
X89167D01*
X609428Y454421D02*
X626166D01*
X475527Y447447D02*
X504818D01*
X432288Y469764D02*
X442052D01*
X295598Y472553D02*
X333257D01*
X73825Y462790D02*
X90562D01*
X41744Y458606D02*
X87772D01*
X38955Y464185D02*
X54297D01*
X338837Y471159D02*
X368127D01*
X223068Y489291D02*
X238411D01*
X436473Y454421D02*
X450421D01*
X161697Y468369D02*
X190988D01*
X75219Y480922D02*
X90562D01*
X377891Y494870D02*
X409972D01*
X609428Y478133D02*
X623376D01*
X376496Y493476D02*
X409972D01*
X124037Y486502D02*
X143565D01*
X475527Y478133D02*
X504818D01*
X609428Y492081D02*
X623376D01*
X415551Y485107D02*
X437868D01*
X640114Y465579D02*
X652667D01*
X507608Y497660D02*
X521556D01*
X635929Y490686D02*
X652667D01*
X43139Y455816D02*
X86378D01*
X47323Y494870D02*
X80799D01*
X161697Y447447D02*
X190988D01*
X100326Y454421D02*
X137985D01*
X200751Y473948D02*
X214699D01*
X276071Y451631D02*
X290019D01*
X161697Y450237D02*
X190988D01*
X373707Y471159D02*
X409972D01*
X354179Y465579D02*
X368127D01*
X93352Y480922D02*
X108695D01*
X609428Y496265D02*
X623376D01*
X633140Y486502D02*
X652667D01*
X443447Y469764D02*
X454605D01*
X260728Y478133D02*
X290019D01*
X38955Y482317D02*
X54297D01*
X319309Y475343D02*
X333257D01*
X161697Y454421D02*
X190988D01*
X635929Y492081D02*
X652667D01*
X515976Y472553D02*
X529924D01*
X319309Y454421D02*
X333257D01*
X591296Y468369D02*
X606638D01*
X396024Y483712D02*
X409972D01*
X541083Y499055D02*
X555031D01*
X415551Y471159D02*
X429499D01*
X375102Y490686D02*
X409972D01*
X396024Y485107D02*
X409972D01*
X260728Y494870D02*
X290019D01*
X475527Y493476D02*
X504818D01*
X375102Y479528D02*
X409972D01*
X457395Y478133D02*
X469948D01*
X299782Y466974D02*
X333257D01*
X73825Y483712D02*
X90562D01*
X556426Y487896D02*
X602454D01*
X76614Y479528D02*
X90562D01*
X221673Y483712D02*
X235621D01*
X207726Y453026D02*
X225858D01*
X41744Y457211D02*
X86378D01*
X242595Y486502D02*
X256543D01*
X370917Y461395D02*
X386260D01*
X457395Y469764D02*
X469948D01*
X515976D02*
X529924D01*
X276071Y480922D02*
X290019D01*
X319309Y483712D02*
X333257D01*
D22*
X237000Y284987D02*
Y245000D01*
X217006D01*
X210342Y251665D01*
Y278323D01*
X217006Y284987D01*
X237000D01*
X197013D02*
Y245000D01*
X183684Y258329D01*
X170355Y245000D01*
Y284987D01*
X157026Y245000D02*
Y284987D01*
X130368Y245000D01*
Y284987D01*
X211342Y78323D02*
X218006Y84987D01*
X231335D01*
X238000Y78323D01*
Y71658D01*
X231335Y64993D01*
X218006D01*
X211342Y58329D01*
Y51664D01*
X218006Y45000D01*
X231335D01*
X238000Y51664D01*
X198013Y84987D02*
Y45000D01*
X178019D01*
X171355Y51664D01*
Y78323D01*
X178019Y84987D01*
X198013D01*
X158026Y45000D02*
Y71658D01*
X144697Y84987D01*
X131368Y71658D01*
Y45000D01*
Y64993D01*
X158026D01*
X211342Y178323D02*
X218006Y184987D01*
X231335D01*
X238000Y178323D01*
Y171658D01*
X231335Y164994D01*
X218006D01*
X211342Y158329D01*
Y151665D01*
X218006Y145000D01*
X231335D01*
X238000Y151665D01*
X171355Y178323D02*
X178019Y184987D01*
X191348D01*
X198013Y178323D01*
Y151665D01*
X191348Y145000D01*
X178019D01*
X171355Y151665D01*
X158026Y184987D02*
Y145000D01*
X131368D01*
X238000Y345000D02*
Y371658D01*
X224671Y384987D01*
X211342Y371658D01*
Y345000D01*
Y364993D01*
X238000D01*
X198013Y345000D02*
Y384987D01*
X171355Y345000D01*
Y384987D01*
X158026Y345000D02*
Y371658D01*
X144697Y384987D01*
X131368Y371658D01*
Y345000D01*
Y364993D01*
X158026D01*
%TF.MD5,a40f0c71453b36457367f0cb34a88990*%
M02*
