G04 Layer_Color=32768*
%FSLAX26Y26*%
%MOIN*%
%TF.FileFunction,Other,Mechanical_15*%
%TF.Part,Single*%
G01*
G75*
%TA.AperFunction,NonConductor*%
%ADD31C,0.001968*%
%ADD32C,0.003937*%
D31*
X514567Y450472D02*
Y509527D01*
X396457Y450472D02*
Y509527D01*
Y450472D02*
X514567D01*
X396457Y509527D02*
X514567D01*
X572638Y33307D02*
Y446693D01*
X277362Y33307D02*
Y446693D01*
Y33307D02*
X572638D01*
X277362Y446693D02*
X572638D01*
X615472Y154055D02*
X674528D01*
X615472Y35945D02*
X674528D01*
Y154055D01*
X615472Y35945D02*
Y154055D01*
X599724Y199449D02*
Y380551D01*
X690276Y199449D02*
Y380551D01*
X599724Y199449D02*
X690276D01*
X599724Y380551D02*
X690276D01*
D32*
X439764Y480000D02*
X471260D01*
X455512Y464252D02*
Y495748D01*
X405315Y240000D02*
X444685D01*
X425000Y220315D02*
Y259685D01*
X645000Y79252D02*
Y110748D01*
X629252Y95000D02*
X660748D01*
X680433Y223071D02*
Y356929D01*
X609567D02*
X680433D01*
X609567Y223071D02*
X680433D01*
X609567D02*
Y356929D01*
X625315Y290000D02*
X664685D01*
X645000Y270315D02*
Y309685D01*
%TF.MD5,5e9b9a890d71e5d2b591197f9ea16868*%
M02*
